<?xml version="1.0" encoding="iso-8859-1"?><svg version="1.1" id="Capa_1" xmlns="http://www.w3.org/2000/svg" xmlns:xlink="http://www.w3.org/1999/xlink" x="0px" y="0px" viewBox="0 0 455 455" style="enable-background:new 0 0 455 455;" xml:space="preserve"><g><path style="fill: #fff;" d="M407.5,0h-360C21.309,0,0,21.309,0,47.5v360C0,433.691,21.309,455,47.5,455h360c26.191,0,47.5-21.309,47.5-47.5v-360C455,21.309,433.691,0,407.5,0z M440,47.5V140H305.832c-20.803-18.643-48.264-30-78.332-30c-30.067,0-57.528,11.357-78.331,30H125V15h282.5C425.421,15,440,29.58,440,47.5z M227.5,125c56.519,0,102.5,45.981,102.5,102.5S284.019,330,227.5,330S125,284.019,125,227.5S170.981,125,227.5,125z M90,140V15h20v125H90z M55,140V15h20v125H55z M40,15.883V140H15V47.5C15,32.161,25.685,19.279,40,15.883z M407.5,440h-360C29.58,440,15,425.42,15,407.5V155h120.094C119.382,174.983,110,200.167,110,227.5c0,64.79,52.71,117.5,117.5,117.5c64.79,0,117.5-52.71,117.5-117.5c0-27.333-9.382-52.517-25.094-72.5H440v252.5C440,425.42,425.421,440,407.5,440z"/><path style="fill: #fff;" d="M227.5,305c42.733,0,77.5-34.766,77.5-77.5S270.233,150,227.5,150c-42.734,0-77.5,34.766-77.5,77.5S184.766,305,227.5,305z M227.5,165c34.463,0,62.5,28.038,62.5,62.5S261.963,290,227.5,290c-34.462,0-62.5-28.038-62.5-62.5S193.038,165,227.5,165z"/><path style="fill: #fff;" d="M227.5,274.981C227.501,274.981,227.5,274.981,227.5,274.981c12.699,0,24.629-4.935,33.588-13.894c13.731-13.731,17.712-34.187,10.141-52.112c-1.612-3.817-6.016-5.602-9.827-3.991c-3.815,1.612-5.603,6.012-3.991,9.827c5.185,12.274,2.465,26.275-6.93,35.669c-6.126,6.126-14.287,9.5-22.98,9.5s-16.854-3.374-22.981-9.5c-2.929-2.929-7.678-2.929-10.606,0c-2.929,2.929-2.929,7.678,0,10.606C202.872,270.047,214.8,274.981,227.5,274.981z"/><path style="fill: #fff;" d="M337.5,115h30c4.143,0,7.5-3.358,7.5-7.5s-3.357-7.5-7.5-7.5H345V55h55v45h-2.5c-4.143,0-7.5,3.358-7.5,7.5s3.357,7.5,7.5,7.5h10c4.143,0,7.5-3.358,7.5-7.5v-60c0-4.142-3.357-7.5-7.5-7.5h-70c-4.143,0-7.5,3.358-7.5,7.5v60C330,111.642,333.357,115,337.5,115z"/></g><g></g><g></g><g></g><g></g><g></g><g></g><g></g><g></g><g></g><g></g><g></g><g></g><g></g><g></g><g></g></svg>