<?xml version="1.0" encoding="utf-8"?>
<!-- Generator: Adobe Illustrator 17.1.0, SVG Export Plug-In . SVG Version: 6.00 Build 0)  -->
<!DOCTYPE svg PUBLIC "-//W3C//DTD SVG 1.1//EN" "http://www.w3.org/Graphics/SVG/1.1/DTD/svg11.dtd">
<svg version="1.1" id="Layer_1" xmlns="http://www.w3.org/2000/svg" xmlns:xlink="http://www.w3.org/1999/xlink" x="0px" y="0px"
	 viewBox="0 0 497.3 120.4" enable-background="new 0 0 497.3 120.4" xml:space="preserve">
<g enable-background="new    ">
	<path fill="#FFFFFF" d="M116.1,95.8c-0.5-0.1-0.9-0.2-1.4-0.3c0.1-0.7,0.2-1.4,0.3-2.1c2,0.3,4,0.6,6,0.9c-0.1,0.7-0.2,1.3-0.3,2
		c-0.3,0-0.6,0-0.8-0.1c-0.4,0-0.8,0.1-0.8,0.7c-0.6,3.8-1.2,7.6-1.7,11.4c0.5,0.1,1,0.2,1.4,0.3c-0.1,0.7-0.2,1.4-0.3,2.1
		c-2-0.3-4.1-0.6-6.1-0.9c0.1-0.7,0.2-1.3,0.3-2c0.3,0,0.6,0,0.8,0.1c0.5,0,0.8-0.1,0.9-0.7C114.9,103.4,115.5,99.6,116.1,95.8z"/>
	<path fill="#FFFFFF" d="M120.4,109c0.3,0,0.6,0,0.9,0.1c0.4,0,0.7-0.1,0.8-0.6c0.6-3.8,1.1-7.7,1.7-11.5c-0.5-0.1-0.9-0.2-1.4-0.3
		c0.1-0.7,0.2-1.4,0.3-2.1c1.5,0.2,3,0.4,4.5,0.7c1.8,4.1,3.6,8.2,5.5,12.4c0,0,0,0,0.1,0c0.4-3.1,0.8-6.1,1.2-9.2
		c-0.5-0.1-1.1-0.2-1.6-0.3c0.1-0.7,0.2-1.4,0.3-2.1c2,0.3,4.1,0.5,6.1,0.8c-0.1,0.7-0.2,1.3-0.3,2c-0.3,0-0.6,0-0.9,0
		c-0.4,0-0.6,0.2-0.7,0.7c-0.6,4.5-1.2,9.1-1.8,13.6c-1-0.1-2-0.3-3-0.4c-1.9-4.2-3.8-8.4-5.7-12.6c0,0,0,0,0,0
		c-0.4,3.1-0.9,6.2-1.3,9.4c0.5,0.1,1.1,0.2,1.6,0.3c-0.1,0.7-0.2,1.4-0.3,2.1c-2.1-0.3-4.1-0.6-6.2-0.9
		C120.2,110.3,120.3,109.7,120.4,109z"/>
	<path fill="#FFFFFF" d="M146.7,109.8c0.2-1.6-1.2-2.2-2.9-2.9c-2.4-1-4.6-2.3-4.2-5.4c0.4-3,3-4.6,6.4-4.1c1.6,0.2,3.2,0.7,4.6,1.6
		c-0.1,1.2-0.3,2.5-0.4,3.7c-0.9,0-1.7-0.1-2.6-0.1c0.1-0.5,0.1-1,0.2-1.4c0.1-0.5,0-0.7-0.4-0.9c-0.5-0.2-1.1-0.3-1.6-0.4
		c-1.5-0.2-2.7,0.3-2.9,1.8c-0.2,1.5,1.2,2.1,3,2.9c2.2,1,4.5,2.3,4.1,5.5c-0.4,3.3-3.2,4.8-6.7,4.3c-2-0.2-3.6-0.8-5-1.7
		c0.2-1.3,0.3-2.6,0.5-3.9c0.9,0.1,1.7,0.1,2.6,0.2c-0.1,0.5-0.1,1-0.2,1.5c-0.1,0.5,0,0.7,0.4,0.9c0.5,0.2,1.1,0.4,1.8,0.4
		C145,112.1,146.5,111.7,146.7,109.8z"/>
	<path fill="#FFFFFF" d="M155.9,110.1c-0.3,2.4,1,3.3,3,3.5c2,0.2,3.4-0.7,3.6-2.7c0.3-3,0.6-6.1,0.9-9.1c-0.5-0.1-1-0.1-1.4-0.2
		c0.1-0.7,0.1-1.4,0.2-2.1c2,0.2,4,0.4,5.9,0.6c-0.1,0.7-0.1,1.3-0.2,2c-0.3,0-0.6,0-0.8,0c-0.5,0-0.8,0.2-0.8,0.7
		c-0.3,3-0.6,5.9-0.8,8.9c-0.3,3.3-3,4.9-6.9,4.5c-4.2-0.4-6.1-2.3-5.7-6.2c0.3-3,0.7-6.1,1-9.1c-0.5-0.1-1-0.2-1.4-0.2
		c0.1-0.7,0.2-1.4,0.2-2.1c2,0.2,4,0.4,6,0.7c-0.1,0.7-0.1,1.3-0.2,2c-0.3,0-0.6,0-0.8,0c-0.5,0-0.8,0.1-0.8,0.7
		C156.5,104.6,156.2,107.4,155.9,110.1z"/>
	<path fill="#FFFFFF" d="M168.1,114.7c0.3,0,0.6,0,0.8,0c0.4,0,0.8-0.1,0.8-0.6c0.3-3.9,0.7-7.7,1-11.6c-0.5-0.1-0.9-0.1-1.4-0.2
		c0.1-0.7,0.1-1.4,0.2-2.1c2.3,0.2,4.6,0.4,6.8,0.6c3.7,0.3,5.9,1.7,5.7,5.1c-0.2,2.5-1.9,3.7-3.4,4.2c0.7,0.3,1,0.8,1.3,1.6
		c0.5,1.4,1,2.7,1.5,4.1c0.5,0.1,1,0.1,1.4,0.2c-0.1,0.7-0.1,1.4-0.2,2.1c-2.1-0.2-4.2-0.3-6.3-0.5c0.1-0.7,0.1-1.3,0.2-2
		c0.2,0,0.5,0,0.7,0c0.6,0,0.7-0.2,0.5-0.8c-0.3-0.9-0.7-1.7-1-2.6c-0.3-0.8-0.6-1.2-1.5-1.3c-0.8-0.1-1.5-0.1-2.3-0.2
		c-0.1,1.4-0.2,2.9-0.4,4.3c0.5,0.1,1.1,0.1,1.6,0.2c-0.1,0.7-0.1,1.4-0.2,2.1c-2.1-0.2-4.2-0.4-6.4-0.6
		C167.9,116.1,168,115.4,168.1,114.7z M175.5,108.4c2.1,0.2,3.2-0.7,3.3-2.5c0.2-2.2-1.1-2.6-3.2-2.8c-0.6-0.1-1.2-0.1-1.8-0.2
		c-0.2,1.8-0.3,3.5-0.5,5.3C174.1,108.3,174.8,108.4,175.5,108.4z"/>
	<path fill="#FFFFFF" d="M189.8,104c-0.5-0.1-1-0.2-1.6-0.3c0-0.7,0.1-1.3,0.1-2c1.9,0.1,3.8,0.3,5.7,0.4c1.4,4.9,2.9,9.8,4.3,14.7
		c0,0,0,0,0,0c0.5,0.1,1,0.1,1.4,0.2c0,0.7-0.1,1.4-0.1,2.1c-2.2-0.1-4.4-0.2-6.6-0.4c0-0.7,0.1-1.3,0.1-2c0.3,0,0.6,0,1,0
		c0.5,0,0.8-0.2,0.7-0.7c-0.1-0.5-0.3-1.1-0.4-1.6c-2-0.1-4-0.2-6-0.4c-0.3,0.7-0.6,1.4-0.9,2.1c0.5,0.1,1,0.1,1.5,0.2
		c0,0.7-0.1,1.4-0.1,2.1c-2-0.1-3.9-0.3-5.9-0.4c0-0.7,0.1-1.3,0.1-2c0.3,0,0.6,0,0.8,0c0.4,0,0.6-0.2,0.8-0.6
		C186.6,111.5,188.2,107.7,189.8,104z M189.4,111.7c1.6,0.1,3.1,0.2,4.7,0.3c-0.6-2.4-1.2-4.8-1.8-7.3c0,0-0.1,0-0.1,0
		C191.2,107.1,190.3,109.4,189.4,111.7z"/>
	<path fill="#FFFFFF" d="M200.9,117.1c0.3,0,0.6,0,0.9,0c0.4,0,0.7-0.2,0.7-0.7c0.2-3.9,0.4-7.7,0.6-11.6c-0.5,0-1-0.1-1.4-0.1
		c0-0.7,0.1-1.4,0.1-2.1c1.5,0.1,3,0.2,4.5,0.2c2.2,3.9,4.4,7.9,6.7,11.8c0,0,0,0,0.1,0c0.1-3.1,0.2-6.2,0.4-9.3
		c-0.6,0-1.1-0.1-1.7-0.1c0-0.7,0.1-1.4,0.1-2.1c2,0.1,4.1,0.2,6.1,0.2c0,0.7,0,1.3-0.1,2c-0.3,0-0.6,0-0.9,0
		c-0.4,0-0.6,0.2-0.6,0.8c-0.2,4.6-0.3,9.2-0.5,13.7c-1,0-2-0.1-3-0.1c-2.3-4-4.6-8-6.9-12c0,0,0,0-0.1,0c-0.1,3.1-0.3,6.3-0.4,9.4
		c0.6,0.1,1.1,0.1,1.7,0.2c0,0.7-0.1,1.4-0.1,2.1c-2.1-0.1-4.2-0.2-6.3-0.3C200.8,118.4,200.8,117.7,200.9,117.1z"/>
	<path fill="#FFFFFF" d="M227.4,105.6c-3.2-0.1-4.8,2.1-4.9,5.9c-0.1,3.9,1.2,6.4,4.7,6.4c0.7,0,1.4,0,1.9-0.2
		c0.5-0.1,0.5-0.3,0.6-0.8c0-0.7,0-1.3,0-2c0.9,0.1,1.7,0.1,2.6,0.2c0,1.4,0,2.9-0.1,4.3c-1.4,0.7-3.4,1-5.1,0.9
		c-5.2-0.1-8-3.1-7.8-8.8c0.2-6.5,4.3-8.6,8.1-8.5c1.5,0,3.2,0.4,4.7,1.1c0,1.4,0,2.8-0.1,4.3c-0.9,0-1.7,0.1-2.6,0.1
		c0-0.7,0-1.3,0-2c0-0.5-0.1-0.7-0.5-0.8C228.5,105.7,227.9,105.6,227.4,105.6z"/>
	<path fill="#FFFFFF" d="M234.3,120.2c0-0.7,0-1.4,0-2c0.3,0,0.6,0,0.8-0.1c0.4,0,0.7-0.2,0.7-0.7c0-3.9,0.1-7.8,0.1-11.6
		c-0.5,0-1-0.1-1.4-0.1c0-0.7,0-1.4,0-2.1c3.8,0,7.7,0.1,11.5,0.1c0,1.4,0,2.8,0,4.2c-0.9,0.1-1.7,0.1-2.6,0.2c0-0.3,0-0.7,0-1
		c0-0.5,0-0.8-0.7-0.8c-1.2,0-2.5,0-3.7,0c0,1.4,0,2.9,0,4.3c1.9,0,3.9,0,5.8,0c0,0.9,0,1.7,0,2.6c-2,0-3.9,0-5.9,0
		c0,1.6,0,3.1,0,4.7c1.4,0,2.7,0,4.1,0c0.7,0,0.7-0.3,0.7-0.8c0-0.4,0-0.8,0-1.3c0.9,0.1,1.7,0.1,2.6,0.2c0,1.5,0,3,0,4.5
		C242.4,120.2,238.3,120.2,234.3,120.2z"/>
	<path fill="#FFFFFF" d="M253.4,118.2c0.3,0,0.6-0.1,0.8-0.1c0.4-0.1,0.7-0.2,0.7-0.7c0-3.9-0.1-7.8-0.1-11.6c-0.5,0-1,0-1.4-0.1
		c0-0.7,0-1.4,0-2.1c2.4,0,4.8-0.1,7.2-0.1c3.7-0.1,6,1.6,6.1,5c0.1,3.8-2.6,5.8-6.4,5.8c-0.7,0-1.4,0-2.2,0c0,1.2,0,2.4,0.1,3.6
		c0.8,0,1.6,0,2.5,0c0,0.7,0,1.4,0,2.1c-2.4,0-4.8,0.1-7.2,0.1C253.4,119.5,253.4,118.8,253.4,118.2z M259.8,111.9
		c2.2,0,3.7-0.8,3.6-3c-0.1-2.6-1.6-2.9-4-2.9c-0.5,0-1,0-1.5,0c0,2,0.1,4,0.1,6C258.6,111.9,259.2,111.9,259.8,111.9z"/>
	<path fill="#FFFFFF" d="M271,105.4c-0.5,0-1.1-0.1-1.6-0.1c0-0.7,0-1.3-0.1-2c1.9-0.1,3.8-0.1,5.7-0.2c1.9,4.7,3.8,9.5,5.7,14.2
		c0,0,0,0,0,0c0.5,0,1,0,1.5,0c0,0.7,0.1,1.4,0.1,2.1c-2.2,0.1-4.4,0.2-6.6,0.3c0-0.7,0-1.3-0.1-2c0.3,0,0.6-0.1,1-0.1
		c0.5-0.1,0.8-0.2,0.6-0.8c-0.2-0.5-0.4-1-0.6-1.5c-2,0.1-4,0.1-6,0.2c-0.2,0.7-0.5,1.5-0.7,2.2c0.5,0,1,0,1.5,0
		c0,0.7,0,1.4,0.1,2.1c-2,0.1-3.9,0.1-5.9,0.2c0-0.7,0-1.4,0-2c0.3,0,0.6-0.1,0.8-0.1c0.4-0.1,0.6-0.2,0.7-0.7
		C268.6,113.2,269.8,109.3,271,105.4z M271.3,113.1c1.6,0,3.1-0.1,4.7-0.2c-0.8-2.3-1.7-4.7-2.5-7c0,0-0.1,0-0.1,0
		C272.7,108.3,272,110.7,271.3,113.1z"/>
	<path fill="#FFFFFF" d="M285.9,112.9c-1.6-2.6-3.1-5.2-4.7-7.9c-0.4,0-0.8,0-1.2,0c0-0.7-0.1-1.4-0.1-2.1c2-0.1,4.1-0.2,6.1-0.3
		c0,0.7,0.1,1.3,0.1,2c-0.2,0-0.5,0.1-0.8,0.1c-0.6,0.1-0.7,0.5-0.4,1c0.8,1.4,1.6,2.8,2.4,4.2c0,0,0.1,0,0.1,0
		c0.8-1.8,1.7-3.6,2.5-5.3c-0.4,0-0.8,0-1.3,0c0-0.7-0.1-1.4-0.1-2.1c1.8-0.1,3.6-0.2,5.4-0.3c0,0.7,0.1,1.3,0.1,2
		c-0.3,0-0.5,0.1-0.8,0.1c-0.4,0.1-0.6,0.3-0.8,0.8c-1.2,2.5-2.4,5.1-3.6,7.6c0.1,1.4,0.1,2.8,0.2,4.1c0.7,0,1.3,0,2,0
		c0,0.7,0.1,1.4,0.1,2.1c-2.4,0.1-4.8,0.3-7.2,0.4c0-0.7-0.1-1.3-0.1-2c0.4,0,0.9-0.1,1.3-0.1c0.5,0,0.7-0.2,0.7-0.7
		C286,115.3,285.9,114.1,285.9,112.9z"/>
	<path fill="#FFFFFF" d="M303.7,113.5c-0.1-1.6-1.6-1.9-3.4-2.3c-2.6-0.5-4.9-1.4-5.1-4.6c-0.2-3,2.1-5,5.5-5.3
		c1.7-0.1,3.2,0.1,4.8,0.7c0.1,1.2,0.2,2.5,0.3,3.7c-0.9,0.1-1.7,0.2-2.6,0.4c0-0.5-0.1-1-0.1-1.4c0-0.5-0.1-0.7-0.6-0.8
		c-0.5-0.1-1.1-0.1-1.6-0.1c-1.5,0.1-2.6,0.8-2.5,2.3c0.1,1.5,1.6,1.9,3.5,2.3c2.3,0.6,4.8,1.4,5.1,4.6c0.2,3.3-2.3,5.3-5.8,5.5
		c-2,0.1-3.7-0.1-5.2-0.7c-0.1-1.3-0.2-2.6-0.2-3.9c0.9-0.1,1.7-0.2,2.6-0.3c0,0.5,0.1,1,0.1,1.5c0,0.5,0.1,0.7,0.6,0.8
		c0.5,0.1,1.2,0.2,1.8,0.1C302.5,116,303.9,115.4,303.7,113.5z"/>
	<path fill="#FFFFFF" d="M314.6,115.4c1.5-2.2,3-4.5,4.5-6.7c1.1-1.6,1.6-2.3,1.4-3.7c-0.1-1.4-1.1-2.1-2.3-2
		c-0.7,0.1-1.1,0.2-1.5,0.3c-0.4,0.2-0.5,0.4-0.4,0.9c0.1,0.6,0.1,1.2,0.2,1.8c-0.9,0-1.7,0-2.6,0c-0.1-1.3-0.2-2.7-0.3-4
		c1.3-0.8,3.1-1.4,5-1.6c3.1-0.3,4.9,1.4,5.2,4c0.2,1.6-0.5,3.2-1.7,4.9c-1.2,1.7-2.4,3.4-3.7,5.1c2.1-0.2,4.2-0.4,6.4-0.6
		c0.1,0.8,0.2,1.6,0.2,2.5c-3.4,0.3-6.8,0.6-10.2,0.9C314.7,116.7,314.7,116.1,314.6,115.4z"/>
	<path fill="#FFFFFF" d="M335.5,101.2c-0.7,0.1-1.3,0.1-2,0.2c-0.5,0.1-0.5,0.4-0.5,0.8c0,0.4,0.1,0.8,0.1,1.2
		c-0.9,0-1.7,0.1-2.6,0.1c-0.1-1.4-0.3-2.8-0.4-4.2c4.4-0.4,8.7-0.9,13.1-1.5c0.2,1.4,0.3,2.8,0.5,4.2c-0.8,0.2-1.7,0.3-2.5,0.5
		c0-0.4-0.1-0.8-0.1-1.2c-0.1-0.5-0.1-0.8-0.8-0.7c-0.6,0.1-1.1,0.1-1.7,0.2c0.4,4,0.9,7.9,1.3,11.9c0.7-0.1,1.3-0.1,2-0.2
		c0.1,0.7,0.2,1.4,0.2,2.1c-2.4,0.3-4.8,0.5-7.2,0.8c-0.1-0.7-0.1-1.3-0.2-2c0.4-0.1,0.9-0.1,1.3-0.2c0.5-0.1,0.7-0.3,0.7-0.8
		C336.3,108.7,335.9,104.9,335.5,101.2z"/>
	<path fill="#FFFFFF" d="M353.2,113.6c-4.5,0.6-7.7-2-8.4-7.6c-0.8-6.4,3-9.1,6.5-9.5c3.7-0.5,7.4,1.3,8.2,7.6
		C360.3,109.8,357.7,113.1,353.2,113.6z M353.1,111.1c3.2-0.4,3.7-3.5,3.3-6.5c-0.3-2.5-1.5-6-4.9-5.6c-3.2,0.4-3.9,3.5-3.5,6.4
		C348.3,108.3,349.4,111.6,353.1,111.1z"/>
	<path fill="#FFFFFF" d="M370,98c-0.9,0.6-1.8,1.3-2.7,1.9c-0.5-0.6-0.9-1.2-1.4-1.7c1.4-1.2,2.8-2.3,4.1-3.5
		c0.8-0.1,1.6-0.2,2.4-0.4c0.7,4.6,1.4,9.1,2.1,13.7c0.9-0.1,1.8-0.2,2.7-0.3c0.1,0.7,0.2,1.4,0.3,2.1c-2.9,0.5-5.9,0.9-8.8,1.4
		c-0.1-0.7-0.2-1.4-0.3-2c0.8-0.2,1.6-0.3,2.4-0.5c0.5-0.1,0.7-0.3,0.6-0.9C371,104.4,370.5,101.2,370,98z"/>
</g>
<g>
	<path fill="#043D05" d="M497.3,54.3c-161.6,52.5-335.7,52.4-497.3,0c11-6.6,21.7-13.4,32.1-20.4C26.9,22.6,22.1,11.3,17.5,0
		C167.8,48.8,329.7,48.8,480,0c-5.3,11.4-11,22.7-17,34C474.1,41,485.6,47.8,497.3,54.3z M11.9,52.8C166,100.5,330.9,100.6,485,53
		c-9.8-5.6-19.3-11.3-28.7-17.2c5.1-9.2,9.9-18.4,14.6-27.7c-145,44.7-300.1,44.7-445-0.2c4,9.3,8.2,18.5,12.6,27.7
		C29.8,41.5,20.9,47.2,11.9,52.8z"/>
</g>
<g>
	<g>
		<path fill="#FEBA00" d="M68,29.9c4,1,7.4,3.1,6.3,7.8c-0.6,2.3-2.3,3.6-4.5,4.1c2.5,1.3,4,3.6,3.2,6.7c-1.1,4.6-5,6.2-11.1,4.6
			c-3.4-0.9-6.9-1.8-10.3-2.7c0.3-0.9,0.5-1.9,0.8-2.8c0.4,0.1,0.8,0.2,1.2,0.2c0.6,0.1,1.1,0,1.3-0.7c1.5-5.4,2.9-10.8,4.4-16.2
			c-0.7-0.2-1.3-0.4-2-0.7c0.3-1,0.5-2,0.8-3C61.3,28.2,64.6,29.1,68,29.9z M61.8,38.5c0.9,0.2,1.8,0.5,2.7,0.7
			c3.1,0.8,4.7-0.3,5.2-2.1c0.6-2.5-1-3.5-3.3-4.1c-1-0.2-1.9-0.5-2.9-0.8C62.9,34.3,62.3,36.4,61.8,38.5z M59,48.9
			c1.1,0.3,2.3,0.6,3.4,0.9c3.6,0.9,5.2-0.4,5.7-2.5c0.6-2.3-0.8-4-3.6-4.8c-1.2-0.3-2.4-0.6-3.6-0.9C60.3,44.1,59.7,46.5,59,48.9z"
			/>
		<path fill="#FEBA00" d="M73.5,56.1c0.2-0.9,0.5-1.9,0.7-2.8c0.4,0.1,0.8,0.1,1.2,0.2c0.6,0.1,1.1,0,1.3-0.7
			c1.3-5.5,2.6-10.9,3.9-16.4c-0.7-0.2-1.3-0.4-2-0.6c0.2-1,0.5-2,0.7-3c2.9,0.7,5.7,1.4,8.6,2c-0.2,1-0.4,1.9-0.6,2.9
			c-0.4-0.1-0.8-0.1-1.2-0.2c-0.6-0.1-1.1,0-1.3,0.9c-1.2,5.2-2.4,10.5-3.6,15.7c2,0.5,4.1,0.9,6.1,1.4c0.8,0.2,0.9-0.3,1.1-0.9
			c0.2-0.8,0.4-1.6,0.5-2.5c1.2,0.4,2.5,0.7,3.7,1.1c-0.5,2.3-1,4.7-1.5,7C85.2,58.8,79.4,57.5,73.5,56.1z"/>
		<path fill="#FEBA00" d="M104.8,41.6c-0.7-0.2-1.5-0.4-2.2-0.7c0.2-1,0.4-1.9,0.6-2.9c2.7,0.6,5.5,1.1,8.2,1.6
			c1.1,7.3,2.3,14.6,3.6,21.9c0,0,0,0,0,0c0.7,0.2,1.4,0.3,2.1,0.5c-0.2,1-0.4,2-0.5,3c-3.2-0.6-6.4-1.2-9.6-1.8
			c0.2-1,0.4-1.9,0.6-2.9c0.5,0.1,1,0.1,1.4,0.2c0.8,0.1,1.2-0.1,1.1-0.9c-0.1-0.8-0.2-1.6-0.4-2.3c-2.9-0.5-5.8-1.1-8.6-1.7
			c-0.6,1-1.2,1.9-1.7,2.9c0.7,0.2,1.5,0.4,2.2,0.6c-0.2,1-0.4,2-0.6,3c-2.9-0.6-5.7-1.2-8.6-1.8c0.2-1,0.4-1.9,0.6-2.9
			c0.4,0.1,0.8,0.1,1.2,0.2c0.6,0.1,0.9-0.1,1.3-0.8C98.7,51.8,101.8,46.7,104.8,41.6z M102.6,52.6c2.3,0.5,4.5,0.9,6.8,1.3
			c-0.5-3.6-0.9-7.2-1.3-10.7c0,0-0.1,0-0.1,0C106.3,46.3,104.5,49.5,102.6,52.6z"/>
		<path fill="#FEBA00" d="M133.3,46.8c-4.6-0.7-7.4,2.1-8.3,7.5c-1,5.6,0.4,9.4,5.6,10.1c1,0.2,2,0.2,2.8,0.1c0.7-0.1,0.9-0.4,1-1.1
			c0.1-1,0.3-1.9,0.4-2.9c1.2,0.3,2.5,0.6,3.7,0.8c-0.3,2.1-0.6,4.1-0.9,6.2c-2.2,0.7-5.2,0.7-7.6,0.3c-7.6-1.2-11-6-9.6-14.1
			c1.7-9.3,8-11.4,13.5-10.5c2.1,0.3,4.6,1.2,6.6,2.5c-0.3,2-0.6,4.1-0.9,6.1c-1.3-0.1-2.5-0.2-3.8-0.3c0.1-0.9,0.3-1.9,0.4-2.8
			c0.1-0.7,0-1-0.6-1.3C135,47.1,134,46.9,133.3,46.8z"/>
		<path fill="#FEBA00" d="M145.7,48.7c-0.7-0.1-1.4-0.3-2.1-0.4c0.1-1,0.3-2,0.4-3c2.9,0.4,5.8,0.8,8.7,1.2c-0.1,1-0.3,1.9-0.4,2.9
			c-0.4,0-0.8,0-1.2-0.1c-0.6,0-1.1,0.1-1.2,1c-0.4,2.6-0.7,5.3-1.1,7.9c2.9-2.6,5.8-5.3,8.6-7.9c-0.7-0.1-1.4-0.2-2-0.4
			c0.1-1,0.3-2,0.4-3c2.8,0.4,5.7,0.7,8.5,1c-0.1,1-0.2,1.9-0.3,2.9c-0.4,0-0.8,0-1.2,0c-0.6,0-1,0.3-1.6,0.8c-2,1.9-4,3.7-6,5.6
			c1.7,3.8,3.5,7.5,5.3,11.2c0.7,0.1,1.3,0.2,2,0.3c-0.1,1-0.2,2-0.4,3.1c-3.2-0.4-6.4-0.8-9.6-1.2c0.1-1,0.2-1.9,0.4-2.9
			c0.4,0,0.8,0,1.2,0c0.7,0,1-0.3,0.7-1.1c-1-2.2-1.9-4.4-2.9-6.6c-1.2,1.1-2.5,2.2-3.8,3.4c-0.2,1.1-0.3,2.2-0.5,3.3
			c0.7,0.1,1.4,0.3,2.1,0.4c-0.1,1-0.3,2-0.4,3c-3-0.4-6-0.8-9-1.2c0.1-1,0.3-1.9,0.4-2.9c0.4,0,0.8,0,1.2,0.1c0.7,0,1.1-0.1,1.2-1
			C144.2,59.6,145,54.2,145.7,48.7z"/>
		<path fill="#FEBA00" d="M163.8,70.9c0.2-2.1,0.5-4.2,0.7-6.3c1.3,0.1,2.5,0.1,3.8,0.2c-0.1,0.9-0.2,1.9-0.3,2.8
			c-0.1,0.7,0,1,0.7,1.3c0.6,0.3,1.1,0.4,1.9,0.5c2,0.2,2.8-0.7,3-3c0.5-4.7,1-9.5,1.4-14.2c-0.9-0.1-1.9-0.3-2.8-0.4
			c0.1-1,0.2-2,0.3-3.1c3.2,0.3,6.3,0.6,9.5,0.9c-0.1,1-0.2,1.9-0.3,2.9c-0.4,0-0.8,0-1.2,0c-0.7,0-1.1,0.3-1.2,1
			c-0.4,3.7-0.7,7.5-1.1,11.2c-0.1,1.1-0.2,2.6-0.5,3.8c-0.7,3.2-3.1,5-7.6,4.6C167.8,72.9,165.5,72.2,163.8,70.9z"/>
		<path fill="#FEBA00" d="M189.9,53.5c-0.8-0.1-1.5-0.3-2.3-0.4c0.1-1,0.2-1.9,0.2-2.9c2.8,0.2,5.6,0.4,8.3,0.6
			c2,7.1,4,14.2,6.2,21.3c0,0,0,0,0,0c0.7,0.1,1.4,0.2,2.1,0.2c-0.1,1-0.1,2-0.2,3.1c-3.2-0.2-6.5-0.4-9.7-0.6
			c0.1-1,0.1-1.9,0.2-2.9c0.5,0,1,0,1.4,0c0.8,0,1.2-0.2,1-1c-0.2-0.8-0.4-1.5-0.6-2.3c-2.9-0.2-5.8-0.4-8.7-0.7
			c-0.5,1-0.9,2.1-1.4,3.1c0.7,0.1,1.5,0.2,2.2,0.3c-0.1,1-0.2,2-0.2,3.1c-2.9-0.2-5.8-0.5-8.7-0.7c0.1-1,0.2-1.9,0.3-2.9
			c0.4,0,0.8,0,1.2,0c0.6,0,0.9-0.2,1.2-0.9C185,64.4,187.5,59,189.9,53.5z M189.1,64.7c2.3,0.2,4.6,0.4,6.9,0.5
			c-0.9-3.5-1.7-7-2.6-10.5c0,0-0.1,0-0.1,0C191.9,58,190.5,61.4,189.1,64.7z"/>
		<path fill="#FEBA00" d="M218.7,55.2c-4.6-0.2-7.1,2.9-7.3,8.4c-0.3,5.7,1.5,9.3,6.7,9.4c1.1,0,2,0,2.8-0.2
			c0.7-0.2,0.8-0.5,0.8-1.2c0-1,0.1-1.9,0.1-2.9c1.3,0.1,2.5,0.3,3.8,0.4c-0.1,2.1-0.1,4.2-0.2,6.2c-2.1,1-5.1,1.3-7.5,1.2
			c-7.7-0.3-11.6-4.7-11.2-12.9c0.5-9.4,6.5-12.2,12.1-12c2.1,0.1,4.6,0.6,6.8,1.7c-0.1,2-0.1,4.1-0.2,6.1c-1.3,0-2.5,0.1-3.8,0.1
			c0-0.9,0.1-1.9,0.1-2.8c0-0.7-0.1-1-0.7-1.2C220.4,55.4,219.4,55.3,218.7,55.2z"/>
		<path fill="#FEBA00" d="M231.2,55.7c-0.7-0.1-1.4-0.1-2.1-0.2c0-1,0.1-2,0.1-3.1c2.9,0.1,5.8,0.1,8.8,0.2c0,1,0,2,0,2.9
			c-0.4,0-0.8,0.1-1.2,0.1c-0.6,0.1-1.1,0.3-1.1,1.1c0,2.7-0.1,5.3-0.1,8c2.6-2.9,5.1-5.9,7.6-8.9c-0.7,0-1.4-0.1-2.1-0.1
			c0-1,0-2,0-3.1c2.8,0,5.7,0,8.5,0c0,1,0,2,0,2.9c-0.4,0-0.8,0.1-1.2,0.1c-0.6,0.1-1,0.4-1.5,1c-1.7,2.1-3.5,4.2-5.3,6.3
			c2.2,3.5,4.3,7,6.6,10.5c0.7,0,1.3,0.1,2,0.1c0,1,0,2,0,3.1c-3.2,0-6.4,0-9.7,0c0-1,0-2,0-2.9c0.4,0,0.8-0.1,1.2-0.1
			c0.7-0.1,1-0.4,0.6-1.2c-1.2-2.1-2.4-4.1-3.6-6.2c-1.1,1.3-2.2,2.5-3.3,3.8c0,1.1,0,2.2-0.1,3.4c0.7,0,1.4,0.1,2.1,0.1
			c0,1,0,2,0,3.1c-3,0-6-0.1-9.1-0.2c0-1,0-2,0.1-2.9c0.4,0,0.8-0.1,1.2-0.1c0.7-0.1,1.1-0.3,1.1-1.2
			C231,66.7,231.1,61.2,231.2,55.7z"/>
		<path fill="#FEBA00" d="M259.4,73.7c0.4,0,0.8-0.1,1.2-0.1c0.6-0.1,1.1-0.3,1.1-1c-0.1-5.6-0.2-11.2-0.3-16.8
			c-0.7,0-1.4,0-2.1-0.1c0-1,0-2-0.1-3.1c3.5-0.1,7-0.1,10.4-0.3c5.4-0.2,8.7,2.2,9,7c0.2,5.5-3.7,8.4-9.3,8.6
			c-1.1,0-2.1,0.1-3.2,0.1c0,1.7,0.1,3.5,0.1,5.2c1.2,0,2.4,0,3.6,0c0,1,0.1,2,0.1,3.1c-3.5,0.1-7,0.2-10.6,0.3
			C259.4,75.6,259.4,74.6,259.4,73.7z M268.7,64.4c3.2-0.1,5.4-1.3,5.3-4.5c-0.1-3.7-2.3-4.2-5.9-4.1c-0.7,0-1.5,0-2.2,0.1
			c0.1,2.9,0.1,5.7,0.2,8.6C267,64.5,267.8,64.5,268.7,64.4z"/>
		<path fill="#FEBA00" d="M285,54.8c-0.8,0-1.5-0.1-2.3-0.1c0-1-0.1-1.9-0.1-2.9c2.8-0.1,5.6-0.3,8.3-0.5c2.9,6.8,5.9,13.6,8.9,20.3
			c0,0,0,0,0,0c0.7,0,1.4,0,2.1,0c0.1,1,0.2,2,0.2,3.1c-3.2,0.2-6.5,0.5-9.7,0.7c-0.1-1-0.1-1.9-0.2-2.9c0.5-0.1,0.9-0.1,1.4-0.2
			c0.8-0.1,1.1-0.4,0.8-1.1c-0.3-0.7-0.6-1.5-0.9-2.2c-2.9,0.2-5.8,0.4-8.7,0.5c-0.3,1.1-0.6,2.2-1,3.2c0.8,0,1.5,0,2.3,0
			c0.1,1,0.1,2,0.2,3.1c-2.9,0.2-5.8,0.3-8.7,0.4c0-1-0.1-1.9-0.1-2.9c0.4-0.1,0.8-0.1,1.2-0.2c0.6-0.1,0.8-0.4,1.1-1.1
			C281.6,66.2,283.3,60.5,285,54.8z M285.6,66c2.3-0.1,4.6-0.3,6.9-0.4c-1.3-3.4-2.6-6.7-3.9-10.1c0,0-0.1,0-0.1,0
			C287.5,59,286.6,62.5,285.6,66z"/>
		<path fill="#FEBA00" d="M307,65.1c-2.4-3.7-4.8-7.4-7.2-11.2c-0.6,0-1.2,0-1.7,0c-0.1-1-0.1-2-0.2-3.1c3-0.2,5.9-0.4,8.9-0.7
			c0.1,1,0.2,1.9,0.2,2.9c-0.4,0.1-0.7,0.1-1.1,0.2c-0.8,0.1-1,0.7-0.5,1.5c1.2,2,2.4,4,3.6,6c0,0,0.1,0,0.1,0
			c1.1-2.6,2.2-5.2,3.3-7.8c-0.6,0-1.2,0-1.8,0c-0.1-1-0.2-2-0.3-3.1c2.6-0.2,5.2-0.5,7.8-0.7c0.1,1,0.2,1.9,0.3,2.9
			c-0.4,0.1-0.7,0.1-1.1,0.2c-0.6,0.1-0.8,0.5-1.1,1.2c-1.6,3.7-3.2,7.5-4.8,11.2c0.2,2,0.4,4,0.5,6c1-0.1,2-0.1,2.9-0.2
			c0.1,1,0.2,2,0.3,3.1c-3.5,0.3-7.1,0.6-10.6,0.9c-0.1-1-0.2-1.9-0.2-2.9c0.7-0.1,1.3-0.2,2-0.3c0.7-0.1,1.1-0.4,1-1.1
			C307.3,68.5,307.1,66.8,307,65.1z"/>
		<path fill="#FEBA00" d="M333.2,64.9c-0.3-2.3-2.5-2.7-5.1-3c-3.8-0.6-7.3-1.7-7.8-6.3c-0.4-4.4,2.7-7.4,7.7-8
			c2.4-0.3,4.7-0.1,7,0.7c0.2,1.8,0.4,3.6,0.7,5.4c-1.2,0.2-2.5,0.5-3.7,0.7c-0.1-0.7-0.2-1.4-0.2-2.1c-0.1-0.7-0.2-1-0.9-1.1
			c-0.7-0.1-1.7-0.1-2.4,0c-2.2,0.2-3.7,1.3-3.5,3.5c0.2,2.2,2.4,2.6,5.3,3.1c3.5,0.7,7.2,1.7,7.8,6.3c0.6,4.7-3,7.8-8.2,8.4
			c-3,0.3-5.4,0.1-7.7-0.7c-0.2-1.9-0.4-3.8-0.6-5.7c1.3-0.2,2.5-0.4,3.8-0.6c0.1,0.7,0.2,1.5,0.2,2.2c0.1,0.7,0.2,1,0.9,1.1
			c0.7,0.1,1.7,0.1,2.7,0C331.6,68.6,333.5,67.6,333.2,64.9z"/>
		<path fill="#FEBA00" d="M355.6,55.1c1.2-1,1.9-2.3,1.6-4.2c-0.3-1.8-1.5-2.6-3.6-2.3c-1,0.2-1.7,0.4-2.2,0.7
			c-0.6,0.3-0.6,0.7-0.5,1.4c0.1,0.9,0.2,1.7,0.4,2.6c-1.3,0.1-2.5,0.2-3.8,0.3c-0.3-1.9-0.5-3.8-0.8-5.7c1.8-1.2,4.2-2.4,7.1-2.9
			c4.6-0.7,7.2,1.4,7.8,4.6c0.4,2.6-0.7,4.9-2.4,6.3c3.2,0.5,4.2,2.6,4.5,4.5c0.7,4.2-1.4,7.7-7.3,8.6c-2.9,0.4-6,0-7.6-0.7
			c0.3-1.2,0.6-2.4,0.8-3.6c1.7,0.6,4.2,1,6.1,0.7c2.4-0.4,3.9-1.5,3.5-4.1c-0.4-2.3-1.9-3.2-5.9-2.7c-0.5,0.1-0.9,0.1-1.4,0.2
			c0-1.1-0.1-2.2-0.1-3.3C353.1,55.5,354.4,55.3,355.6,55.1z"/>
		<path fill="#FEBA00" d="M378.9,44.1c-0.9,0.2-1.9,0.3-2.8,0.5c-0.8,0.1-0.7,0.6-0.6,1.3c0.1,0.6,0.2,1.1,0.3,1.7
			c-1.3,0.1-2.5,0.3-3.8,0.4c-0.4-2-0.7-4-1.1-6.1c6.3-1.1,12.6-2.3,18.8-3.6c0.4,2,0.8,4,1.2,6c-1.2,0.3-2.4,0.7-3.6,1
			c-0.1-0.6-0.2-1.1-0.3-1.7c-0.1-0.7-0.3-1.1-1.3-0.9c-0.8,0.2-1.6,0.3-2.5,0.5c1.1,5.7,2.2,11.3,3.3,17c1-0.2,2-0.3,2.9-0.5
			c0.2,1,0.4,2,0.6,3c-3.5,0.7-7,1.3-10.5,2c-0.2-1-0.3-1.9-0.5-2.9c0.6-0.2,1.3-0.3,1.9-0.5c0.7-0.2,1-0.5,0.9-1.2
			C380.9,54.8,379.9,49.5,378.9,44.1z"/>
		<path fill="#FEBA00" d="M406.3,59.9c-6.6,1.5-11.6-1.8-13.2-9.9c-1.8-9.1,3.3-13.4,8.3-14.5c5.3-1.2,10.9,0.9,13,9.9
			C416.3,53.3,412.8,58.5,406.3,59.9z M405.8,56.3c4.7-1,5-5.6,4.1-9.8c-0.8-3.6-3-8.4-7.9-7.3c-4.6,1-5.2,5.5-4.4,9.7
			C398.4,52.9,400.5,57.4,405.8,56.3z"/>
		<path fill="#FEBA00" d="M427.4,51.6c1.7-3.5,3.4-7.1,5-10.7c1.1-2.5,1.7-3.7,1.2-5.7c-0.5-2-2.1-2.7-3.8-2.2
			c-1,0.3-1.6,0.5-2.1,0.8c-0.6,0.4-0.6,0.7-0.4,1.4c0.2,0.8,0.4,1.7,0.6,2.5c-1.2,0.2-2.5,0.5-3.7,0.7c-0.5-1.9-0.9-3.7-1.4-5.6
			c1.6-1.4,4.1-2.8,6.8-3.5c4.4-1.2,7.4,0.7,8.5,4.4c0.6,2.3,0.1,4.7-1.3,7.5c-1.4,2.7-2.7,5.5-4.1,8.2c3.1-0.8,6.1-1.6,9.1-2.4
			c0.3,1.2,0.6,2.3,0.9,3.5c-4.9,1.3-9.8,2.6-14.7,3.9C427.9,53.4,427.7,52.5,427.4,51.6z"/>
	</g>
</g>
</svg>
