<?xml version="1.0" encoding="iso-8859-1"?><svg version="1.1" id="Layer_1" xmlns="http://www.w3.org/2000/svg" xmlns:xlink="http://www.w3.org/1999/xlink" x="0px" y="0px"	 viewBox="0 0 512 512" style="enable-background:new 0 0 512 512;" xml:space="preserve"><g>	<g>		<path style="fill:#fff;" d="M421.583,355.644H249.787V254.081c0-4.149-3.363-7.511-7.511-7.511c-4.148,0-7.511,3.362-7.511,7.511v101.563h-17.51			V23.776c0-4.827,3.928-8.754,8.755-8.754c4.827,0,8.754,3.928,8.754,8.754c0,11.864,0,196.941,0,205.603			c0,4.149,3.363,7.511,7.511,7.511c4.148,0,7.511-3.362,7.511-7.511v-40.941l126.276-62.968c6.174-3.077,9.715-7.965,9.715-13.409			c0-5.443-3.541-10.331-9.715-13.409L249.787,35.689V23.776C249.787,10.665,239.121,0,226.011,0			c-13.11,0-23.777,10.665-23.777,23.776v336.443L84.675,499.648c-2.674,3.172-2.271,7.909,0.9,10.584			c3.167,2.671,7.907,2.272,10.583-0.9l55.032-65.27c89.835,16.681,188.232-17.701,190.565-73.396h79.828			c4.149,0,7.511-3.362,7.511-7.511S425.732,355.644,421.583,355.644z M249.787,52.473l119.505,59.589l-119.505,59.591V52.473z			 M162.44,430.72l50.635-60.055c12.893,0,100.818,0,113.641,0C324.164,410.922,244.145,442.667,162.44,430.72z"/>	</g></g><g></g><g></g><g></g><g></g><g></g><g></g><g></g><g></g><g></g><g></g><g></g><g></g><g></g><g></g><g></g></svg>