<?xml version="1.0" encoding="iso-8859-1"?><svg version="1.1" id="Capa_1" xmlns="http://www.w3.org/2000/svg" xmlns:xlink="http://www.w3.org/1999/xlink" x="0px" y="0px" viewBox="0 0 512.001 512.001" style="enable-background:new 0 0 512.001 512.001;" xml:space="preserve"><g><g><path style="fill:#fff" d="M497.095,296.339h-10.964V83.982c0-22.388-18.214-40.601-40.601-40.601H66.471c-22.388,0-40.601,18.213-40.601,40.601v212.357H14.905C6.673,296.339,0,303.012,0,311.244c0,8.231,6.673,14.905,14.905,14.905h220.49h41.211h220.49c8.231,0,14.905-6.673,14.905-14.905C512.001,303.012,505.328,296.339,497.095,296.339z M404.929,296.339H291.51v-71.342l31.03-24.675c6.443-5.123,7.513-14.499,2.389-20.942c-5.123-6.443-14.5-7.513-20.942-2.39l-36.657,29.151c-3.556,2.828-5.628,7.122-5.628,11.665v78.533h-11.402v-78.533c0-4.543-2.072-8.838-5.628-11.665l-36.658-29.151c-6.442-5.122-15.82-4.054-20.942,2.39c-5.123,6.443-4.054,15.819,2.389,20.942l31.03,24.675v71.341H107.072V124.584h297.857V296.339z M456.321,296.339h-21.583v-186.66c0-8.231-6.673-14.905-14.905-14.905H92.167c-8.231,0-14.905,6.673-14.905,14.905v186.66H55.678V83.982c0-5.951,4.842-10.792,10.792-10.792h379.06c5.951,0,10.792,4.842,10.792,10.792V296.339z"/></g></g><g><g><circle xmlns="http://www.w3.org/2000/svg" cy="171.473" r="21.15" cx="256.002" style="fill:#fff"/></g></g><g><g><path style="fill:#fff" d="M307.541,417.08c0-28.42-23.121-51.54-51.54-51.54c-28.419,0-51.54,23.121-51.54,51.54c0,11.191,3.597,21.553,9.68,30.013c-0.994,1.997-1.567,4.241-1.567,6.623c0,8.231,6.673,14.905,14.905,14.905h57.043c8.231,0,14.905-6.673,14.905-14.905c0-2.382-0.572-4.624-1.566-6.621C303.944,438.635,307.541,428.273,307.541,417.08z M256.002,438.811c-11.982,0-21.731-9.749-21.731-21.731c0-11.982,9.749-21.731,21.731-21.731s21.731,9.749,21.731,21.731S267.984,438.811,256.002,438.811z"/></g></g><g></g><g></g><g></g><g></g><g></g><g></g><g></g><g></g><g></g><g></g><g></g><g></g><g></g><g></g><g></g></svg>