<?xml version="1.0" encoding="iso-8859-1"?><svg version="1.1" id="Capa_1" xmlns="http://www.w3.org/2000/svg" xmlns:xlink="http://www.w3.org/1999/xlink" x="0px" y="0px" viewBox="0 0 512 512" style="enable-background:new 0 0 512 512;" xml:space="preserve"><g><g><path style="fill:#fff;" d="M437,61c-33.084,0-60,26.916-60,60s26.916,60,60,60s60-26.916,60-60S470.084,61,437,61z M437,151c-16.542,0-30-13.458-30-30s13.458-30,30-30s30,13.458,30,30S453.542,151,437,151z"/></g></g><g><g><path style="fill:#fff;" d="M135,391H15c-8.284,0-15,6.716-15,15v91c0,8.284,6.716,15,15,15h120c8.284,0,15-6.716,15-15v-91C150,397.716,143.284,391,135,391z M120,482H30v-61h90V482z"/></g></g><g><g><path style="fill:#fff;" d="M317,271H195c-8.284,0-15,6.716-15,15v211c0,8.284,6.716,15,15,15h122c8.284,0,15-6.716,15-15V286C332,277.716,325.284,271,317,271z M302,482h-92V301h92V482z"/></g></g><g><g><path style="fill:#fff;" d="M497,331H377c-8.284,0-15,6.716-15,15v151c0,8.284,6.716,15,15,15h120c8.284,0,15-6.716,15-15V346C512,337.716,505.284,331,497,331z M482,482h-90V361h90V482z"/></g></g><g><g><path style="fill:#fff;" d="M437,181c-41.355,0-75,33.645-75,75v30c0,8.284,6.716,15,15,15h120c8.284,0,15-6.716,15-15v-30C512,214.645,478.355,181,437,181z M482,271h-90v-15c0-24.813,20.187-45,45-45s45,20.187,45,45V271z"/></g></g><g><g><path style="fill:#fff;" d="M256,0c-33.065,0-61,27.935-61,61c0,33.385,28.041,60,61,60c33.018,0,61-26.676,61-60C317,27.935,289.065,0,256,0zM256,91c-16.804,0-31-13.738-31-30c0-16.514,14.486-31,31-31c16.514,0,31,14.486,31,31C287,77.262,272.804,91,256,91z"/></g></g><g><g><path style="fill:#fff;" d="M256,121c-41.463,0-76,33.535-76,75v30c0,8.284,6.716,15,15,15h122c8.284,0,15-6.716,15-15v-30C332,154.537,297.465,121,256,121z M302,211h-92v-15c0-24.393,21.065-45,46-45s46,20.607,46,45V211z"/></g></g><g><g><path style="fill:#fff;" d="M75,121c-33.084,0-60,26.916-60,60s26.916,60,60,60s60-26.916,60-60S108.084,121,75,121z M75,211c-16.542,0-30-13.458-30-30s13.458-30,30-30s30,13.458,30,30S91.542,211,75,211z"/></g></g><g><g><path style="fill:#fff;" d="M75,241c-41.355,0-75,33.645-75,75v30c0,8.284,6.716,15,15,15h120c8.284,0,15-6.716,15-15v-30 C150,274.645,116.355,241,75,241z M120,331H30v-15c0-24.813,20.187-45,45-45s45,20.187,45,45V331z" /></g></g><g></g><g></g><g></g><g></g><g></g><g></g><g></g><g></g><g></g><g></g><g></g><g></g><g></g><g></g><g></g></svg>